<svg xmlns="http://www.w3.org/2000/svg" width="75.523" height="16" viewBox="0 0 75.523 16"><defs><style>.a{fill:#484848;}</style></defs><g transform="translate(-58 -22.386)"><path class="a" d="M207.815,525.756l-.069.158.058-.161a2.428,2.428,0,0,0-1.886.037,4.067,4.067,0,0,0-.53.232c-.219.12-.434.261-.674.422-.213.141-.454.3-.706.443a2.535,2.535,0,0,0-.258.195,2.752,2.752,0,0,1-.778.492,1.651,1.651,0,0,1-1.32-.116c-.182-.088-.471-.271-.7-.417l-.244-.152a3.645,3.645,0,0,0-2.97-.16A2.459,2.459,0,0,0,196.158,528a15.608,15.608,0,0,0-.885,3.153l-.056.365a31.644,31.644,0,0,0-.405,3.431c-.009.27-.032.532-.056.81a4.316,4.316,0,0,0,.111,1.992.845.845,0,0,0,1.206.318,2.561,2.561,0,0,0,.465-1.013c.13-.43.354-1.663.57-2.854l.028-.153c.078-.43.153-.841.223-1.21a9.029,9.029,0,0,1,.6-2.241,1.644,1.644,0,0,1,1.158-.843,1.563,1.563,0,0,1,1.408.3,2.369,2.369,0,0,1,.571,1.988l-.008.163a21.326,21.326,0,0,1-.2,2.136c-.082.606-.135,1.1-.168,1.561l-.007.1a3.372,3.372,0,0,0,.1,1.454.77.77,0,0,0,.358.413.734.734,0,0,0,.586.036,1.792,1.792,0,0,0,.839-.951,27.366,27.366,0,0,0,.751-3.407,23.9,23.9,0,0,1,.705-2.936,3.737,3.737,0,0,1,.99-1.911,2.089,2.089,0,0,1,.968-.528,1.248,1.248,0,0,1,.258-.027,1.179,1.179,0,0,1,.837.346,1.94,1.94,0,0,1,.511,1.173,11.314,11.314,0,0,1-.168,3.231c-.216,1.418-.5,2.852-.77,4.238l-.178.912a1.2,1.2,0,0,0,.5,1.4.689.689,0,0,0,.326.084.871.871,0,0,0,.711-.464,5.739,5.739,0,0,0,.647-1.969l.083-.409a35.786,35.786,0,0,0,.623-5.524l.019-.442C209.5,528.763,209.6,526.544,207.815,525.756Z" transform="translate(-136.698 -502.109)"/><path class="a" d="M371.1,540.7a2.341,2.341,0,0,0-.46-.235,4.246,4.246,0,0,0-1.643-.188,6.406,6.406,0,0,0-2.276.359l-.129.061a4.087,4.087,0,0,0-.691.375,6.457,6.457,0,0,0-1.641,1.933,4.847,4.847,0,0,0-.622,2.615,2.934,2.934,0,0,0,.257,1.215A2.421,2.421,0,0,0,365.8,548.1a3.652,3.652,0,0,0,1.7-.222c.134-.048.273-.109.416-.17.465-.2.962-.41,1.336-.214a.958.958,0,0,1,.447.788,4.253,4.253,0,0,1-.026.889c-.019.191-.037.372-.038.555a1.386,1.386,0,0,0,.533,1.193.959.959,0,0,0,.465.144.569.569,0,0,0,.169-.024,1.069,1.069,0,0,0,.575-.6,7.714,7.714,0,0,0,.481-2.156c.164-1.211.267-2.032.323-3.214.008-.178.02-.361.034-.585l.009-.144C372.306,543.033,372.4,541.556,371.1,540.7ZM366.2,545.43a1.757,1.757,0,0,1,.025-1.734,2.526,2.526,0,0,1,2.164-1.235h.027a1.614,1.614,0,0,1,1.151.416.982.982,0,0,1,.266.762,2.428,2.428,0,0,1-.809,1.5,3.012,3.012,0,0,1-.251.207,2.72,2.72,0,0,1-.519.3,2.816,2.816,0,0,1-.36.131,2.347,2.347,0,0,1-.689.1A1.177,1.177,0,0,1,366.2,545.43Z" transform="translate(-289.879 -515.431)"/><path class="a" d="M919.349,546.243a2.318,2.318,0,0,0-.46-.235,4.279,4.279,0,0,0-1.644-.188,6.4,6.4,0,0,0-2.275.359l-.13.061a4.082,4.082,0,0,0-.691.375,6.455,6.455,0,0,0-1.641,1.933,4.848,4.848,0,0,0-.622,2.615,2.936,2.936,0,0,0,.257,1.215,2.421,2.421,0,0,0,1.9,1.266,3.644,3.644,0,0,0,1.7-.223c.134-.048.273-.108.416-.17.466-.2.962-.413,1.337-.214a.96.96,0,0,1,.446.788,4.153,4.153,0,0,1-.025.874c-.02.2-.038.382-.039.569a1.385,1.385,0,0,0,.533,1.193.962.962,0,0,0,.465.144.56.56,0,0,0,.168-.025,1.052,1.052,0,0,0,.576-.6,7.711,7.711,0,0,0,.481-2.155c.164-1.211.267-2.032.323-3.215.007-.142.015-.287.024-.436l.019-.293C920.553,548.576,920.647,547.1,919.349,546.243Zm-4.906,4.729a1.755,1.755,0,0,1,.025-1.734A2.526,2.526,0,0,1,916.633,548h.027a1.612,1.612,0,0,1,1.15.416.983.983,0,0,1,.266.762h0a2.427,2.427,0,0,1-.809,1.5,2.99,2.99,0,0,1-.251.207,2.935,2.935,0,0,1-.879.426,2.466,2.466,0,0,1-.671.1h-.018A1.177,1.177,0,0,1,914.443,550.973Z" transform="translate(-786.989 -520.457)"/><path class="a" d="M473,524.149l-.175-.02c-.128-.012-.265-.02-.406-.028l-.063,0a3.609,3.609,0,0,1-1.651-.349c-.312-.192-.253-.5-.117-1.035a6.447,6.447,0,0,0,.152-.741,4.62,4.62,0,0,1,.1-.482c.124-.515.252-1.049-.15-1.414a1.1,1.1,0,0,0-1.131-.24c-.422.171-.593.991-.721,1.746-.016.095-.03.18-.044.249-.036.18-.058.359-.084.566-.1.787-.176,1.4-1.3,1.349-.385-.021-.826-.082-1.3-.146a13.12,13.12,0,0,0-1.678-.165,1.586,1.586,0,0,0-.716.133.721.721,0,0,0-.374.471.957.957,0,0,0,.141.756,2.276,2.276,0,0,0,1.812.731l.044,0c.143.014.283.022.421.029l.055,0a2.866,2.866,0,0,1,1.376.3c.916.509.733,1.6.572,2.56l-.04.242c-.062.388-.13.775-.2,1.163-.163.932-.331,1.9-.415,2.861a.93.93,0,0,0,.881,1.191.686.686,0,0,0,.529-.252,3.822,3.822,0,0,0,.639-1.881c.015-.1.03-.195.046-.284.028-.164.056-.328.087-.486.21-1.087.379-2.2.5-3.3.065-.57.163-1.433.971-1.632a3.834,3.834,0,0,1,1.169-.04,4.469,4.469,0,0,0,.971,0,1.083,1.083,0,0,0,.754-.537.854.854,0,0,0-.041-1.045A.963.963,0,0,0,473,524.149Z" transform="translate(-380.255 -496.839)"/><path class="a" d="M589.294,524.149l-.176-.02c-.127-.012-.263-.019-.4-.027l-.064,0a3.611,3.611,0,0,1-1.652-.349c-.312-.192-.253-.5-.117-1.035a6.491,6.491,0,0,0,.152-.741,4.621,4.621,0,0,1,.1-.482c.124-.515.253-1.048-.149-1.414a1.1,1.1,0,0,0-1.131-.24c-.422.171-.594.991-.722,1.746-.015.095-.03.18-.044.25-.037.191-.06.382-.083.566-.1.786-.172,1.4-1.3,1.348-.385-.021-.828-.082-1.3-.146a13.119,13.119,0,0,0-1.678-.165,1.589,1.589,0,0,0-.716.133.724.724,0,0,0-.373.47.951.951,0,0,0,.14.757,2.276,2.276,0,0,0,1.811.731l.044,0c.143.014.284.022.421.029l.055,0a2.87,2.87,0,0,1,1.376.3c.916.509.733,1.6.571,2.561l-.04.241c-.063.391-.131.782-.2,1.172-.163.929-.33,1.891-.414,2.852a.93.93,0,0,0,.881,1.191.686.686,0,0,0,.529-.252,3.822,3.822,0,0,0,.639-1.881c.015-.1.03-.195.046-.284.028-.164.056-.328.087-.486.209-1.084.379-2.2.5-3.3.065-.571.163-1.433.971-1.632a3.8,3.8,0,0,1,1.169-.04,4.26,4.26,0,0,0,.969,0,1.081,1.081,0,0,0,.755-.537.855.855,0,0,0-.041-1.045A.959.959,0,0,0,589.294,524.149Z" transform="translate(-485.705 -496.839)"/><path class="a" d="M700.062,549.586a2.3,2.3,0,0,1,.479-.095,2.74,2.74,0,0,0,.523-.1,7.43,7.43,0,0,0,2.907-1.706,2.479,2.479,0,0,0,.534-3.321,2.522,2.522,0,0,0-.7-.64,3.5,3.5,0,0,0-1.869-.446,3.644,3.644,0,0,0-1.521.307c-2.4,1.1-3.093,4.132-2.936,6.6a3.963,3.963,0,0,0,1.429,3.2,3.1,3.1,0,0,0,1.764.526,3.5,3.5,0,0,0,2.141-.73,4.224,4.224,0,0,0,1.015-1.058l.128-.186c.183-.259.461-.652.311-1.016a.756.756,0,0,0-.987-.331,2.6,2.6,0,0,0-.849.6,3.286,3.286,0,0,1-.509.417,1.439,1.439,0,0,1-1.594.044,1.608,1.608,0,0,1-.57-1.4C699.772,550.079,699.823,549.674,700.062,549.586Zm1.208-2.217-.1-.151a1.055,1.055,0,0,1-.627.011.533.533,0,0,1-.349-.387,1.113,1.113,0,0,1-.023-.394,1.563,1.563,0,0,1,.678-1.053,1.52,1.52,0,0,1,1.608-.15.687.687,0,0,1,.337.441.8.8,0,0,1-.163.62,2.886,2.886,0,0,1-1.415.9l.05.164Z" transform="translate(-592.565 -518.158)"/><path class="a" d="M788.524,514.488a.769.769,0,0,0-.389-.472.632.632,0,0,0-.151-.048h0a.824.824,0,0,0-.746.3,1.976,1.976,0,0,0-.348.771,34.108,34.108,0,0,0-.814,3.941c-.143.914-.32,2.051-.559,3.367-.308,1.858-.556,3.357-.739,4.482-.019.116-.04.237-.062.36a5.726,5.726,0,0,0-.106,2.23.7.7,0,0,0,.51.507.938.938,0,0,0,.242.032.923.923,0,0,0,.647-.257,3.756,3.756,0,0,0,.837-2.076c.056-.344.133-.7.209-1.038.06-.274.121-.548.171-.822.18-.978.323-1.979.46-2.946.048-.333.095-.665.144-1,.074-.505.136-.983.185-1.423.044-.4.1-.795.15-1.191.064-.479.129-.957.176-1.438.027-.274.06-.549.094-.823a15.627,15.627,0,0,0,.154-1.924A1.752,1.752,0,0,0,788.524,514.488Z" transform="translate(-671.518 -491.572)"/><path class="a" d="M834.757,536.862a2.1,2.1,0,0,0-1.594-.609,5,5,0,0,0-3.08.762c-1.1.767-1.413,2.216-.832,3.876a8.72,8.72,0,0,0,.949,1.882l.083.122c.222.33.431.641.613.938a2.924,2.924,0,0,1,.493,1.488c-.016.606-.143.925-.44,1.1a1.39,1.39,0,0,1-.911.16,3.427,3.427,0,0,1-1.057-.38c-.061-.031-.117-.058-.175-.086l-.069-.032c-.4-.188-1.13-.538-1.588-.309a.644.644,0,0,0-.338.484.971.971,0,0,0,.152.7,1.862,1.862,0,0,0,.461.473,6.43,6.43,0,0,0,1.29.777,4.38,4.38,0,0,0,1.688.347,3.785,3.785,0,0,0,.67-.058,3.08,3.08,0,0,0,2.023-1.4,3.5,3.5,0,0,0,.4-2.375,7.513,7.513,0,0,0-1.122-2.4l-.029-.046c-.176-.274-.357-.554-.526-.842l-.08-.131c-.337-.549-1.036-1.689-.344-2.512a2.166,2.166,0,0,1,1.8-.492l.4,0c.5.006,1.025.02,1.225-.539A1.136,1.136,0,0,0,834.757,536.862Z" transform="translate(-709.84 -511.787)"/></g></svg>