<svg xmlns="http://www.w3.org/2000/svg" width="24" height="24" viewBox="0 0 24 24"><defs><style>.a{fill:none;}.b{fill:#484848;}</style></defs><g transform="translate(-1244 -19)"><rect class="a" width="24" height="24" transform="translate(1244 19)"/><path class="b" d="M180.531,23.653a.8.8,0,0,1-.128-.01,7.622,7.622,0,0,1-3.54-2.115,31.231,31.231,0,0,1-2.4-2.57.175.175,0,0,0-.158-.053.274.274,0,0,0-.161.052,7.034,7.034,0,0,1-4.041,1.28c-.167.01-.328.015-.488.015a7.441,7.441,0,0,1-2.935-.586,8.067,8.067,0,0,1-4.673-8.736,7.663,7.663,0,0,1,2.568-4.362,6.229,6.229,0,0,1,2.007-1.237.285.285,0,0,0,.069-.033,5.206,5.206,0,0,1,2.9-.725,9.761,9.761,0,0,1,1.565.132,7.72,7.72,0,0,1,4.892,2.924,8.066,8.066,0,0,1,0,9.5.275.275,0,0,0,.027.359l1.966,1.966c.141.123.267.228.391.331.269.22.546.432.822.644a9.93,9.93,0,0,1,2.165,2.024.6.6,0,0,1,.07.666,1.1,1.1,0,0,1-.925.537ZM170.019,7.007a9.874,9.874,0,0,0-1.8.219c-.353.065-.719.133-1.081.173a.3.3,0,0,0-.132.049,7.088,7.088,0,0,0-1.716,1.64,5.321,5.321,0,0,0-.9,4.489,5.627,5.627,0,0,0,5.4,4.335,5.721,5.721,0,0,0,1.765-.284,5.328,5.328,0,0,0,3.27-2.925,5.667,5.667,0,0,0-.023-4.6,5.259,5.259,0,0,0-3.731-2.975A4.527,4.527,0,0,0,170.019,7.007Z" transform="translate(1084.081 16.672)"/></g></svg>