<svg xmlns="http://www.w3.org/2000/svg" width="25" height="25" viewBox="0 0 25 25"><defs><style>.a{fill:none;}.b{fill:#484848;}</style></defs><g transform="translate(-216.705)"><rect class="a" width="25" height="25" transform="translate(216.705)"/><g transform="translate(218.788 3.185)"><path class="b" d="M235.9,25.042a1.121,1.121,0,0,1-.57-.154,1.132,1.132,0,0,1,0-1.955,1.132,1.132,0,0,1,1.142,0,2.14,2.14,0,0,1,.232.177l.174.224a2.305,2.305,0,0,1,.118.273l.041.294a.873.873,0,0,1-.1.447,1.141,1.141,0,0,1-.053.126.876.876,0,0,1-.3.326,1.045,1.045,0,0,1-.114.086,1.121,1.121,0,0,1-.574.156Z" transform="translate(-227.443 -14.1)"/><path class="b" d="M243.959,25.042a1.132,1.132,0,1,1,.571-2.109,2.05,2.05,0,0,1,.231.177l.175.223a2.541,2.541,0,0,1,.119.274l.041.293a.87.87,0,0,1-.1.446,1.116,1.116,0,0,1-.054.126.869.869,0,0,1-.3.326,1.033,1.033,0,0,1-.112.086A1.133,1.133,0,0,1,243.959,25.042Z" transform="translate(-231.305 -14.1)"/><path class="b" d="M240.637,31.127c-.5-.025-.974-.039-1.478-.039-.712,0-1.455-.01-2.167.008-.486.013-.972.025-1.454.032-.729.009-1.562.036-2.405.057-.157,0-.348.011-.511.019a5.778,5.778,0,0,0-2.01.256.617.617,0,0,0-.3.532.549.549,0,0,0,.3.484,5.543,5.543,0,0,0,1.89.242c.161.006.337,0,.5.012.777.046,1.544.038,2.206.038h.491c.431,0,.864,0,1.3.008s.872-.023,1.308-.023c.94,0,1.66-.025,2.338-.07a.781.781,0,0,0,.78-.791A.763.763,0,0,0,240.637,31.127Z" transform="translate(-225.309 -18.081)"/><path class="b" d="M226.665,24.745a43.453,43.453,0,0,1-5.1-.214l-.085-.015-.04,0c-.027,0-.054,0-.081,0a.668.668,0,0,1-.476-.19.635.635,0,0,1-.174-.461c.047-2.9,1.874-10.455,2.217-11.488l.078-.429a1.008,1.008,0,0,1,.354-.6.959.959,0,0,1,.554-.22c.075,0,.151-.006.226-.006l.472.008c.161,0,.311-.006.47-.011.231-.007.452-.015.662-.015l.338,0,.03-.247a5.174,5.174,0,0,1,1.853-3.37A4.879,4.879,0,0,1,228.515,7a4.741,4.741,0,0,1,2.622-.886,2.367,2.367,0,0,1,.923.17l.03.013.032.006a4.968,4.968,0,0,1,2.38,1.147,5.208,5.208,0,0,1,1.382,1.7,7.939,7.939,0,0,1,.709,1.676l.061.214.222-.013c.084,0,.175-.007.274-.007.158,0,.313.005.447.01l.189.006c.1,0,.19,0,.295-.011.159-.008.331-.017.5-.017.241,0,.88,0,1.065.388.555,1.2,1.836,11.434,1.873,11.859a1.307,1.307,0,0,1-.188.969.749.749,0,0,1-.531.257c-2.259.2-5.87.213-8.507.22l-1.107,0c-.456,0-.97.008-1.522.015l-.119,0C228.652,24.733,227.662,24.745,226.665,24.745Zm4.595-1.985c.2,0,.946.01,1.7.021.781.011,1.577.023,1.8.023,1.928-.005,2.61-.047,4.106-.139l.678-.041s-.1-.923-.136-1.247c-.062-.6-.133-1.276-.224-1.942-.085-.62-.207-1.243-.325-1.844l-.014-.072c-.1-.5-.19-.97-.259-1.428s-.13-1.377-.186-1.785l-.009-.066c-.062-.46-.119-.875-.176-1.231l-.037-.227-3.793-.115-6.491.119h-3.15l-.053.211c-.063.249-.13.555-.23,1.015-.074.345-.167,1.241-.288,1.782-.07.313-.209.87-.362,1.485l-.016.066c-.233.929-.5,1.982-.6,2.486a22.826,22.826,0,0,0-.361,2.5l-.039.361.291.018c.953.059,2.141.088,3.632.088.972,0,1.952-.011,2.82-.022.64-.008,1.2-.015,1.694-.017Zm0-14.761a3.041,3.041,0,0,0-2.623,1.488c-.112.23-.216.482-.319.734a2.949,2.949,0,0,0-.111.593l-.024.3h6.158l-.027-.3c-.007-.078-.017-.157-.031-.24a4.7,4.7,0,0,0-.362-.843A3.819,3.819,0,0,0,232.354,8.2,3.051,3.051,0,0,0,231.262,8Z" transform="translate(-220.705 -6.116)"/></g></g></svg>